<svg width="54" height="48" viewBox="0 0 54 48" fill="none" xmlns="http://www.w3.org/2000/svg">
<path d="M18.5068 38.9503C18.9438 38.5133 19.4039 37.8002 20.8069 37.8002C22.2099 37.8002 36.6542 37.8002 38.0572 37.8002C39.3338 37.8002 46.3604 30.7506 47.2574 29.7501C48.12 28.7841 51.9495 23.0339 53.0076 20.5499C52.3406 19.6529 50.535 18.9053 48.4075 19.3999C46.3719 19.8714 45.1759 21.3319 43.8074 24L38.5403 26.737" stroke="white" stroke-width="2" stroke-miterlimit="10" stroke-linejoin="round"/>
<path d="M25.406 30.9008C25.406 30.9008 34.6062 30.9008 35.7562 30.9008C40.3563 30.9008 40.3563 25.1506 35.7562 25.1506C34.6062 25.1506 31.7311 25.1506 28.5341 25.1506C27.5796 25.1506 25.774 22.8506 24.256 22.8506C23.5775 22.8506 20.0584 22.8506 18.5059 22.8506C16.9533 22.8506 15.0213 24.1156 13.9058 25.1506C12.1807 26.8757 9.30566 29.7507 9.30566 29.7507" stroke="white" stroke-width="2" stroke-miterlimit="10" stroke-linejoin="round"/>
<path d="M6.99724 27.451L1.24805 33.2002L15.0477 46.9999L20.7969 41.2507L6.99724 27.451Z" stroke="white" stroke-width="2" stroke-miterlimit="10" stroke-linejoin="round"/>
<path d="M7.00586 33.2002L9.30591 35.5002" stroke="white" stroke-width="2" stroke-miterlimit="10" stroke-linejoin="round"/>
<path d="M49.5571 19.4004V1H17.3564V22.8505" stroke="white" stroke-width="2" stroke-miterlimit="10"/>
<path d="M38.0566 1V5.6001H28.8564V1" stroke="white" stroke-width="2" stroke-miterlimit="10"/>
<path d="M20.8057 18.25H23.1057" stroke="white" stroke-width="2" stroke-miterlimit="10"/>
<path d="M24.2559 18.25H26.5559" stroke="white" stroke-width="2" stroke-miterlimit="10"/>
<path d="M27.7061 18.25H30.0061" stroke="white" stroke-width="2" stroke-miterlimit="10"/>
</svg>
