<svg xmlns="http://www.w3.org/2000/svg" xmlns:xlink="http://www.w3.org/1999/xlink" width="160" zoomAndPan="magnify" viewBox="0 0 120 119.999999" height="160" preserveAspectRatio="xMidYMid meet" version="1.0"><defs><clipPath id="86c61bed31"><path d="M 7.398438 18.433594 L 24.589844 18.433594 L 24.589844 94.972656 L 7.398438 94.972656 Z M 7.398438 18.433594 " clip-rule="nonzero"/></clipPath><clipPath id="0284d53459"><path d="M 7.402344 18.09375 L 87.957031 18.09375 L 87.957031 93.933594 L 7.402344 93.933594 Z M 7.402344 18.09375 " clip-rule="nonzero"/></clipPath><clipPath id="3f5bf176dd"><path d="M 24.597656 18.878906 L 105.148438 18.878906 L 105.148438 94.71875 L 24.597656 94.71875 Z M 24.597656 18.878906 " clip-rule="nonzero"/></clipPath><clipPath id="c6edd12218"><path d="M 32.035156 18.878906 L 112.589844 18.878906 L 112.589844 94.71875 L 32.035156 94.71875 Z M 32.035156 18.878906 " clip-rule="nonzero"/></clipPath><clipPath id="d77473a843"><path d="M 8.765625 1.242188 L 61.761719 1.242188 L 61.761719 18.433594 L 8.765625 18.433594 Z M 8.765625 1.242188 " clip-rule="nonzero"/></clipPath><clipPath id="6d4eb6cb43"><path d="M 21.34375 53.808594 L 53.96875 53.808594 L 53.96875 71 L 21.34375 71 Z M 21.34375 53.808594 " clip-rule="nonzero"/></clipPath><clipPath id="de6abe6f4b"><path d="M 47.683594 29.828125 L 64.875 29.828125 L 64.875 94.964844 L 47.683594 94.964844 Z M 47.683594 29.828125 " clip-rule="nonzero"/></clipPath><clipPath id="9480dd279d"><path d="M 8.972656 23.113281 L 22.636719 23.113281 L 22.636719 118.75 L 8.972656 118.75 Z M 8.972656 23.113281 " clip-rule="nonzero"/></clipPath><clipPath id="178761c557"><path d="M 22.824219 87.132812 L 35.589844 87.132812 L 35.589844 103.1875 L 22.824219 103.1875 Z M 22.824219 87.132812 " clip-rule="nonzero"/></clipPath></defs><g clip-path="url(#86c61bed31)"><path fill="#ffffff" d="M 24.589844 18.433594 L 24.589844 94.992188 L 7.398438 94.992188 L 7.398438 18.433594 Z M 24.589844 18.433594 " fill-opacity="1" fill-rule="nonzero"/></g><g clip-path="url(#0284d53459)"><path fill="#d70018" d="M 86.566406 43.300781 C 82.210938 27.253906 69.027344 17.671875 51.296875 17.671875 L 7.402344 17.671875 L 8.269531 19.65625 C 11.992188 28.183594 20.40625 33.695312 29.714844 33.699219 L 41.664062 33.699219 L 41.761719 33.695312 C 42.21875 33.664062 43.894531 33.5625 46.414062 33.5625 C 48.835938 33.5625 51.304688 33.65625 53.738281 33.84375 L 53.976562 33.859375 C 63.304688 34.59375 76.078125 37.03125 83.976562 44.464844 L 84.074219 44.558594 C 84.117188 44.601562 84.160156 44.636719 84.199219 44.679688 L 87.957031 48.417969 Z M 87.769531 61.796875 L 87.761719 61.949219 C 85.390625 81.945312 71.269531 94.367188 50.90625 94.367188 L 22.90625 94.367188 L 22.90625 56.511719 L 24.320312 56.511719 C 32.519531 56.511719 39.1875 63.179688 39.1875 71.378906 L 39.1875 78.082031 L 51.589844 78.082031 C 57.699219 78.082031 62.84375 76.074219 66.46875 72.28125 C 70.15625 68.417969 72.105469 62.832031 72.105469 56.132812 L 72.105469 55.902344 C 72.105469 50.71875 70.964844 46.246094 68.714844 42.609375 L 66.613281 39.214844 L 70.386719 40.523438 C 75.0625 42.148438 78.859375 44.308594 81.664062 46.953125 C 85.765625 50.8125 87.816406 55.804688 87.769531 61.796875 " fill-opacity="1" fill-rule="nonzero"/></g><g clip-path="url(#3f5bf176dd)"><path fill="#d70018" d="M 103.757812 44.085938 C 99.402344 28.035156 86.21875 18.453125 68.492188 18.453125 L 24.597656 18.453125 L 25.460938 20.4375 C 29.183594 28.964844 37.601562 34.480469 46.90625 34.480469 L 58.957031 34.480469 C 59.410156 34.445312 61.089844 34.34375 63.605469 34.34375 C 66.027344 34.34375 68.496094 34.441406 70.929688 34.625 L 71.167969 34.644531 C 80.496094 35.378906 93.269531 37.816406 101.167969 45.25 L 101.269531 45.34375 C 101.308594 45.382812 101.351562 45.421875 101.390625 45.460938 L 105.148438 49.203125 Z M 104.960938 62.578125 L 104.953125 62.734375 C 102.582031 82.730469 88.460938 95.148438 68.101562 95.148438 L 40.097656 95.148438 L 40.097656 57.292969 L 41.511719 57.292969 C 49.710938 57.292969 56.382812 63.964844 56.382812 72.160156 L 56.382812 78.863281 L 68.785156 78.863281 C 74.890625 78.863281 80.035156 76.859375 83.660156 73.0625 C 87.347656 69.199219 89.300781 63.617188 89.300781 56.917969 L 89.300781 56.6875 C 89.300781 51.5 88.160156 47.027344 85.90625 43.390625 L 83.808594 39.996094 L 87.578125 41.304688 C 92.257812 42.929688 96.050781 45.089844 98.855469 47.734375 C 102.957031 51.597656 105.011719 56.589844 104.960938 62.578125 " fill-opacity="1" fill-rule="nonzero"/></g><g clip-path="url(#c6edd12218)"><path fill="#ffffff" d="M 111.199219 44.085938 C 106.839844 28.035156 93.65625 18.453125 75.929688 18.453125 L 32.035156 18.453125 L 32.902344 20.4375 C 36.621094 28.964844 45.039062 34.480469 54.34375 34.480469 L 66.394531 34.480469 C 66.847656 34.445312 68.527344 34.34375 71.046875 34.34375 C 73.46875 34.34375 75.933594 34.441406 78.371094 34.625 L 78.609375 34.644531 C 87.933594 35.378906 100.710938 37.816406 108.605469 45.25 L 108.707031 45.34375 C 108.75 45.382812 108.789062 45.421875 108.828125 45.460938 L 112.585938 49.203125 Z M 112.402344 62.578125 L 112.390625 62.734375 C 110.019531 82.730469 95.898438 95.148438 75.539062 95.148438 L 47.535156 95.148438 L 47.535156 57.292969 L 48.953125 57.292969 C 57.152344 57.292969 63.820312 63.964844 63.820312 72.160156 L 63.820312 78.863281 L 76.222656 78.863281 C 82.332031 78.863281 87.476562 76.859375 91.101562 73.0625 C 94.789062 69.199219 96.738281 63.617188 96.738281 56.917969 L 96.738281 56.6875 C 96.738281 51.5 95.597656 47.027344 93.347656 43.390625 L 91.246094 39.996094 L 95.015625 41.304688 C 99.695312 42.929688 103.492188 45.089844 106.296875 47.734375 C 110.394531 51.597656 112.449219 56.589844 112.402344 62.578125 " fill-opacity="1" fill-rule="nonzero"/></g><g clip-path="url(#d77473a843)"><path fill="#d70018" d="M 8.765625 1.242188 L 61.75 1.242188 L 61.75 18.433594 L 8.765625 18.433594 Z M 8.765625 1.242188 " fill-opacity="1" fill-rule="nonzero"/></g><g clip-path="url(#6d4eb6cb43)"><path fill="#ffffff" d="M 21.34375 53.808594 L 53.980469 53.808594 L 53.980469 71 L 21.34375 71 Z M 21.34375 53.808594 " fill-opacity="1" fill-rule="nonzero"/></g><g clip-path="url(#de6abe6f4b)"><path fill="#ffffff" d="M 47.683594 94.964844 L 47.683594 29.824219 L 64.875 29.824219 L 64.875 94.964844 Z M 47.683594 94.964844 " fill-opacity="1" fill-rule="nonzero"/></g><path fill="#d70018" d="M 16 51.335938 L 17.050781 52.285156 L 17.050781 62.097656 L 21.367188 66.414062 L 21.367188 49.734375 L 16 44.371094 Z M 16 51.335938 " fill-opacity="1" fill-rule="nonzero"/><path fill="#d70018" d="M 16.011719 43.601562 L 21.371094 48.960938 L 21.375 45.148438 L 16.019531 39.773438 Z M 16.011719 43.601562 " fill-opacity="1" fill-rule="nonzero"/><path fill="#d70018" d="M 21.371094 44.367188 L 21.375 40.554688 L 16.019531 35.179688 L 16.011719 39.007812 Z M 21.371094 44.367188 " fill-opacity="1" fill-rule="nonzero"/><g clip-path="url(#9480dd279d)"><path fill="#d70018" d="M 8.976562 24.492188 C 8.976562 24.855469 9.222656 25.160156 9.558594 25.25 L 9.558594 39.648438 L 13.230469 43.320312 L 13.230469 49.828125 L 14.917969 51.511719 L 14.917969 61.214844 L 16.195312 62.492188 L 16.195312 73.417969 L 21.089844 78.316406 L 21.089844 112.816406 L 21.484375 112.816406 L 21.484375 78.707031 L 22.648438 79.867188 L 22.648438 118.28125 L 23.039062 118.28125 L 23.039062 79.703125 L 21.484375 78.148438 L 21.484375 67.222656 L 16.589844 62.328125 L 16.589844 52.628906 L 15.3125 51.351562 L 15.3125 44.847656 L 13.625 43.160156 L 13.625 31.820312 C 13.96875 31.738281 14.226562 31.425781 14.226562 31.058594 C 14.226562 30.621094 13.875 30.269531 13.441406 30.269531 C 13.003906 30.269531 12.652344 30.621094 12.652344 31.058594 C 12.652344 31.421875 12.898438 31.722656 13.230469 31.816406 L 13.230469 42.765625 L 9.953125 39.488281 L 9.953125 25.257812 C 10.296875 25.175781 10.554688 24.863281 10.554688 24.492188 C 10.554688 24.058594 10.203125 23.707031 9.765625 23.707031 C 9.332031 23.707031 8.976562 24.058594 8.976562 24.492188 Z M 21.089844 67.386719 L 21.089844 77.757812 L 16.589844 73.253906 L 16.589844 62.886719 Z M 16.195312 52.792969 L 16.195312 61.933594 L 15.3125 61.046875 L 15.3125 51.90625 Z M 14.917969 45.007812 L 14.917969 50.957031 L 13.625 49.664062 L 13.625 43.714844 Z M 14.917969 45.007812 " fill-opacity="1" fill-rule="nonzero"/></g><g clip-path="url(#178761c557)"><path fill="#d70018" d="M 35.589844 103.1875 L 22.824219 103.1875 L 22.824219 87.136719 L 35.589844 87.136719 Z M 35.589844 103.1875 " fill-opacity="1" fill-rule="nonzero"/></g></svg>