<svg xmlns="http://www.w3.org/2000/svg" xmlns:xlink="http://www.w3.org/1999/xlink" width="160" zoomAndPan="magnify" viewBox="0 0 120 119.999999" height="160" preserveAspectRatio="xMidYMid meet" version="1.0"><defs><clipPath id="e5c2a3376b"><path d="M 17.027344 26.050781 L 31.070312 26.050781 L 31.070312 88.574219 L 17.027344 88.574219 Z M 17.027344 26.050781 " clip-rule="nonzero"/></clipPath><clipPath id="69a787e57f"><path d="M 17.035156 25.40625 L 82.84375 25.40625 L 82.84375 88.082031 L 17.035156 88.082031 Z M 17.035156 25.40625 " clip-rule="nonzero"/></clipPath><clipPath id="439b1f20f3"><path d="M 31.078125 26.042969 L 96.890625 26.042969 L 96.890625 88.722656 L 31.078125 88.722656 Z M 31.078125 26.042969 " clip-rule="nonzero"/></clipPath><clipPath id="4cc4972daf"><path d="M 37.15625 26.042969 L 102.964844 26.042969 L 102.964844 88.722656 L 37.15625 88.722656 Z M 37.15625 26.042969 " clip-rule="nonzero"/></clipPath><clipPath id="4f6fb190b7"><path d="M 18.144531 12 L 61.441406 12 L 61.441406 26.042969 L 18.144531 26.042969 Z M 18.144531 12 " clip-rule="nonzero"/></clipPath><clipPath id="cfe3d35332"><path d="M 28.421875 54.941406 L 55.074219 54.941406 L 55.074219 68.988281 L 28.421875 68.988281 Z M 28.421875 54.941406 " clip-rule="nonzero"/></clipPath><clipPath id="459a0af37e"><path d="M 49.933594 35.355469 L 63.980469 35.355469 L 63.980469 88.5625 L 49.933594 88.5625 Z M 49.933594 35.355469 " clip-rule="nonzero"/></clipPath><clipPath id="89ca3d9649"><path d="M 18.140625 30 L 29.601562 30 L 29.601562 107.996094 L 18.140625 107.996094 Z M 18.140625 30 " clip-rule="nonzero"/></clipPath><clipPath id="3ce5605cc7"><path d="M 29.628906 82.160156 L 40.054688 82.160156 L 40.054688 95.273438 L 29.628906 95.273438 Z M 29.628906 82.160156 " clip-rule="nonzero"/></clipPath></defs><rect x="-12" width="144" fill="#ffffff" y="-12" height="143.999998" fill-opacity="1"/><rect x="-12" width="144" fill="#ffffff" y="-12" height="143.999998" fill-opacity="1"/><g clip-path="url(#e5c2a3376b)"><path fill="#d70018" d="M 31.070312 26.050781 L 31.070312 88.589844 L 17.027344 88.589844 L 17.027344 26.050781 Z M 31.070312 26.050781 " fill-opacity="1" fill-rule="nonzero"/></g><g clip-path="url(#69a787e57f)"><path fill="#ffffff" d="M 81.710938 46.355469 C 78.148438 33.246094 67.378906 25.417969 52.894531 25.417969 L 17.035156 25.417969 L 17.742188 27.039062 C 20.78125 34.003906 27.65625 38.507812 35.261719 38.511719 L 45.023438 38.511719 L 45.105469 38.507812 C 45.476562 38.480469 46.847656 38.398438 48.90625 38.398438 C 50.882812 38.398438 52.898438 38.476562 54.886719 38.628906 L 55.085938 38.644531 C 62.703125 39.242188 73.140625 41.234375 79.589844 47.308594 L 79.675781 47.382812 C 79.707031 47.417969 79.742188 47.449219 79.773438 47.480469 L 82.84375 50.539062 Z M 82.691406 61.46875 L 82.683594 61.59375 C 80.746094 77.929688 69.210938 88.078125 52.574219 88.078125 L 29.699219 88.078125 L 29.699219 57.148438 L 30.855469 57.148438 C 37.554688 57.148438 43.003906 62.597656 43.003906 69.292969 L 43.003906 74.769531 L 53.132812 74.769531 C 58.125 74.769531 62.328125 73.132812 65.289062 70.03125 C 68.304688 66.875 69.894531 62.3125 69.894531 56.839844 L 69.894531 56.652344 C 69.894531 52.414062 68.964844 48.761719 67.125 45.789062 L 65.410156 43.015625 L 68.488281 44.085938 C 72.3125 45.414062 75.414062 47.179688 77.703125 49.339844 C 81.054688 52.492188 82.730469 56.574219 82.691406 61.46875 " fill-opacity="1" fill-rule="nonzero"/></g><g clip-path="url(#439b1f20f3)"><path fill="#ffffff" d="M 95.753906 46.996094 C 92.195312 33.882812 81.421875 26.054688 66.941406 26.054688 L 31.078125 26.054688 L 31.785156 27.679688 C 34.824219 34.644531 41.703125 39.148438 49.304688 39.148438 L 59.148438 39.148438 C 59.519531 39.121094 60.890625 39.039062 62.949219 39.039062 C 64.925781 39.039062 66.941406 39.117188 68.933594 39.269531 L 69.128906 39.285156 C 76.746094 39.882812 87.1875 41.875 93.636719 47.949219 L 93.71875 48.023438 C 93.753906 48.058594 93.785156 48.085938 93.820312 48.121094 L 96.886719 51.179688 Z M 96.738281 62.105469 L 96.726562 62.234375 C 94.792969 78.570312 83.253906 88.714844 66.621094 88.714844 L 43.742188 88.714844 L 43.742188 57.789062 L 44.898438 57.789062 C 51.597656 57.789062 57.046875 63.238281 57.046875 69.933594 L 57.046875 75.410156 L 67.179688 75.410156 C 72.167969 75.410156 76.371094 73.773438 79.332031 70.671875 C 82.347656 67.515625 83.941406 62.953125 83.941406 57.480469 L 83.941406 57.292969 C 83.941406 53.054688 83.007812 49.402344 81.167969 46.429688 L 79.453125 43.65625 L 82.535156 44.726562 C 86.355469 46.054688 89.457031 47.820312 91.75 49.976562 C 95.097656 53.132812 96.777344 57.210938 96.738281 62.105469 " fill-opacity="1" fill-rule="nonzero"/></g><g clip-path="url(#4cc4972daf)"><path fill="#d70018" d="M 101.832031 46.996094 C 98.269531 33.882812 87.5 26.054688 73.015625 26.054688 L 37.15625 26.054688 L 37.863281 27.679688 C 40.902344 34.644531 47.78125 39.148438 55.382812 39.148438 L 65.226562 39.148438 C 65.597656 39.121094 66.96875 39.039062 69.027344 39.039062 C 71.003906 39.039062 73.019531 39.117188 75.011719 39.269531 L 75.207031 39.285156 C 82.824219 39.882812 93.261719 41.875 99.714844 47.949219 L 99.796875 48.023438 C 99.828125 48.058594 99.863281 48.085938 99.894531 48.121094 L 102.964844 51.179688 Z M 102.8125 62.105469 L 102.804688 62.234375 C 100.867188 78.570312 89.332031 88.714844 72.699219 88.714844 L 49.820312 88.714844 L 49.820312 57.789062 L 50.976562 57.789062 C 57.675781 57.789062 63.125 63.238281 63.125 69.933594 L 63.125 75.410156 L 73.257812 75.410156 C 78.246094 75.410156 82.449219 73.773438 85.410156 70.671875 C 88.425781 67.515625 90.015625 62.953125 90.015625 57.480469 L 90.015625 57.292969 C 90.015625 53.054688 89.085938 49.402344 87.246094 46.429688 L 85.53125 43.65625 L 88.613281 44.726562 C 92.433594 46.054688 95.535156 47.820312 97.828125 49.976562 C 101.175781 53.132812 102.855469 57.210938 102.8125 62.105469 " fill-opacity="1" fill-rule="nonzero"/></g><g clip-path="url(#4f6fb190b7)"><path fill="#ffffff" d="M 18.144531 12 L 61.429688 12 L 61.429688 26.042969 L 18.144531 26.042969 Z M 18.144531 12 " fill-opacity="1" fill-rule="nonzero"/></g><g clip-path="url(#cfe3d35332)"><path fill="#d70018" d="M 28.421875 54.941406 L 55.082031 54.941406 L 55.082031 68.988281 L 28.421875 68.988281 Z M 28.421875 54.941406 " fill-opacity="1" fill-rule="nonzero"/></g><g clip-path="url(#459a0af37e)"><path fill="#d70018" d="M 49.933594 88.5625 L 49.933594 35.347656 L 63.980469 35.347656 L 63.980469 88.5625 Z M 49.933594 88.5625 " fill-opacity="1" fill-rule="nonzero"/></g><path fill="#ffffff" d="M 23.886719 52.914062 L 24.746094 53.6875 L 24.746094 61.714844 L 28.277344 65.242188 L 28.277344 51.605469 L 23.886719 47.21875 Z M 23.886719 52.914062 " fill-opacity="1" fill-rule="nonzero"/><path fill="#ffffff" d="M 23.894531 46.589844 L 28.277344 50.972656 L 28.28125 47.851562 L 23.902344 43.460938 Z M 23.894531 46.589844 " fill-opacity="1" fill-rule="nonzero"/><path fill="#ffffff" d="M 28.277344 47.214844 L 28.28125 44.097656 L 23.902344 39.703125 L 23.894531 42.832031 Z M 28.277344 47.214844 " fill-opacity="1" fill-rule="nonzero"/><g clip-path="url(#89ca3d9649)"><path fill="#ffffff" d="M 18.144531 30.964844 C 18.144531 31.261719 18.347656 31.511719 18.621094 31.585938 L 18.621094 43.359375 L 21.621094 46.359375 L 21.621094 51.679688 L 23 53.058594 L 23 60.988281 L 24.046875 62.035156 L 24.046875 70.96875 L 28.050781 74.972656 L 28.050781 103.179688 L 28.371094 103.179688 L 28.371094 75.292969 L 29.320312 76.242188 L 29.320312 107.648438 L 29.644531 107.648438 L 29.644531 76.109375 L 28.371094 74.835938 L 28.371094 65.902344 L 24.367188 61.902344 L 24.367188 53.972656 L 23.324219 52.925781 L 23.324219 47.605469 L 21.945312 46.226562 L 21.945312 36.957031 C 22.226562 36.890625 22.4375 36.636719 22.4375 36.332031 C 22.4375 35.976562 22.148438 35.6875 21.792969 35.6875 C 21.4375 35.6875 21.152344 35.976562 21.152344 36.332031 C 21.152344 36.628906 21.351562 36.878906 21.625 36.953125 L 21.625 45.90625 L 18.945312 43.226562 L 18.945312 31.589844 C 19.226562 31.523438 19.433594 31.269531 19.433594 30.964844 C 19.433594 30.609375 19.144531 30.324219 18.789062 30.324219 C 18.433594 30.324219 18.144531 30.609375 18.144531 30.964844 Z M 28.050781 66.039062 L 28.050781 74.515625 L 24.367188 70.835938 L 24.367188 62.355469 Z M 24.046875 54.105469 L 24.046875 61.578125 L 23.324219 60.855469 L 23.324219 53.378906 Z M 23 47.738281 L 23 52.605469 L 21.945312 51.546875 L 21.945312 46.683594 Z M 23 47.738281 " fill-opacity="1" fill-rule="nonzero"/></g><g clip-path="url(#3ce5605cc7)"><path fill="#ffffff" d="M 40.054688 95.273438 L 29.628906 95.273438 L 29.628906 82.160156 L 40.054688 82.160156 Z M 40.054688 95.273438 " fill-opacity="1" fill-rule="nonzero"/></g></svg>